# xmcd CD database file
#
# Track frame offsets:
#	182
#	19140
#	33287
#	48972
#	66882
#	81865
#	100612
#	132880
#	163820
#	179212
#	193400
#	208245
#	221615
#	234725
#
# Disc length: 3351 seconds
#
# Revision: 0
# Processed by: cddbd v1.5.2PL0 Copyright (c) Steve Scherf et al.
# Submitted via: jetAudio 7
#
DISCID=d00d150e
DTITLE=Patricia Lewis - Duet
DYEAR=1998
DGENRE=Easy Listening
TTITLE0=Ek Verlang Na Jou
TTITLE1=So Verlief
TTITLE2=Head Over Heels (You're My First Love)
TTITLE3=My Paradys
TTITLE4=Nobody Wins
TTITLE5=Sal Ons Dit Ooit Kan Keer?
TTITLE6=Medley Nr 1
TTITLE7=Medley Nr 2
TTITLE8=Ek Glo In Wat More Wag
TTITLE9=Wedding Bells
TTITLE10=Sing A Song Of Christmas
TTITLE11=Vat-Vat (Donsopname) (Jurie: Solo)
TTITLE12=Die Wiele Draai
TTITLE13=Wals Van Die Seer
EXTD=
EXTT0=
EXTT1=
EXTT2=
EXTT3=
EXTT4=
EXTT5=
EXTT6=
EXTT7=
EXTT8=
EXTT9=
EXTT10=
EXTT11=
EXTT12=
EXTT13=
PLAYORDER=
